<mxfile host="app.diagrams.net" modified="2023-09-05T03:41:25.129Z" agent="Mozilla/5.0 (Macintosh; Intel Mac OS X 10_15_7) AppleWebKit/537.36 (KHTML, like Gecko) Chrome/116.0.0.0 Safari/537.36" version="21.6.5" etag="H7sC7CNX2vu156nD6y5z" type="github">
  <diagram name="第 1 页" id="yvJOwguY9-N9obS2rYWS">
    <mxGraphModel>
      <root>
        <mxCell id="0" />
        <mxCell id="1" parent="0" />
      </root>
    </mxGraphModel>
  </diagram>
</mxfile>
